<svg xmlns="http://www.w3.org/2000/svg" viewBox="0 0 3360.01 741.63"><defs><style>.cls-1{fill:#26a9b5;}.cls-2{fill:#173b74;}.cls-3{fill:#fff;}</style></defs><g id="Ebene_2" data-name="Ebene 2"><g id="svg27"><g id="autolina-logo-2022"><path id="Pfad_1" data-name="Pfad 1" class="cls-1" d="M8.11,297.1H238.7c3.31,0,3.31,2.08,3.31,5.22v45.51c0,3.14-2.4,6.8-5.71,6.8H27.65a4.06,4.06,0,0,1-1.36-.3,3.36,3.36,0,0,1-1-.84L.41,306.8a6.83,6.83,0,0,1,1.65-7.22C3.54,297.81,6.45,297.1,8.11,297.1Z"/><path id="Pfad_2" data-name="Pfad 2" class="cls-1" d="M56.16,386.1H285.49c3.34,0,6,2.08,6,5.22v45.51a5.85,5.85,0,0,1-6,5.66h0L75.83,443.63a4,4,0,0,1-1.37-.3,3.44,3.44,0,0,1-1-.84L48.41,395.8a6.81,6.81,0,0,1,1.66-7.22C51.56,386.81,54.49,386.1,56.16,386.1Z"/><path id="Pfad_3" data-name="Pfad 3" class="cls-1" d="M104.11,475.1H332.24c3.31,0,5.77,2.08,5.77,5.22v45.51c0,3.14-2.46,6.8-5.77,6.8H123.65a4.06,4.06,0,0,1-1.36-.3,3.36,3.36,0,0,1-1-.84L96.41,484.8a6.83,6.83,0,0,1,1.65-7.22C99.54,475.81,102.45,475.1,104.11,475.1Z"/><path id="Ellipse_8" data-name="Ellipse 8" class="cls-1" d="M831,405.63c0,185.57-150.43,336-336,336s-336-150.43-336-336,150.43-336,336-336S831,220.06,831,405.63Z"/><g id="_lin" data-name=" lin"><path id="path851" class="cls-1" d="M2071.31,575.27V66.21q0-29.47,16.15-47.64Q2104,0,2130.65,0q17.35,0,30.68,8.48a54.83,54.83,0,0,1,21.4,23.41q7.67,14.94,7.67,34.32V575.27q0,19.38-7.67,34.72a58.17,58.17,0,0,1-21.4,23.41,59.4,59.4,0,0,1-30.68,8.07q-26.64,0-43.19-18.16-16.15-18.57-16.15-48Z"/><path id="path853" class="cls-1" d="M2255,575.27V258q0-29.46,16.15-47.63,16.55-18.57,43.19-18.57,17.37,0,30.68,8.47a54.85,54.85,0,0,1,21.4,23.42q7.66,14.94,7.67,34.31V575.27q0,19.38-7.67,34.72A58.1,58.1,0,0,1,2345,633.4a59.38,59.38,0,0,1-30.68,8.07q-26.64,0-43.19-18.16-16.16-18.57-16.15-48Zm59.34-561.95a62.84,62.84,0,0,1,33.11,9.29,72,72,0,0,1,24.62,24.62,58.74,58.74,0,0,1,9.29,31.49q0,27.86-19.78,48.44-19.38,20.19-47.24,20.19-26.23,0-46.83-21-20.17-21-20.18-47.64,0-25.42,20.18-45.21,20.6-20.19,46.83-20.19Z"/><path id="path855" class="cls-1" d="M2440.29,575.27V258q0-29.46,16.14-47.63,16.56-18.57,43.2-18.57,23,0,37.14,11.7,14.54,11.72,17.76,32.3,34.72-48.85,114.65-48.85,46.83,0,84,19.38a138.68,138.68,0,0,1,58.13,55.31q21,35.92,21,85.58V575.27q0,19.38-7.67,34.72a58.17,58.17,0,0,1-21.4,23.41,59.4,59.4,0,0,1-30.68,8.07q-26.64,0-43.2-18.16-16.14-18.57-16.14-48V367.77q0-40-21.8-60.56-21.41-21-56.12-21-23.42,0-40.77,10.9a67.5,67.5,0,0,0-26.24,28.66q-8.88,18.17-8.88,42v207.5q0,19.38-7.67,34.72a58.17,58.17,0,0,1-21.4,23.41,59.4,59.4,0,0,1-30.68,8.07q-26.64,0-43.2-18.16-16.14-18.57-16.14-48Z"/></g><g id="_ut" data-name=" ut"><path id="path858" class="cls-2" d="M850.92,465.73V251q0-29.46,16.15-47.63,16.54-18.57,43.2-18.57,17.36,0,30.68,8.47a54.83,54.83,0,0,1,21.39,23.42Q970,231.59,970,251V463.31q0,35.12,22.61,56.11a77.68,77.68,0,0,0,54.1,21,83,83,0,0,0,38.35-8.88,71.58,71.58,0,0,0,27.85-26.64q10.9-17.37,10.9-41.58V251q0-29.46,16.15-47.63,16.54-18.57,43.19-18.57,17.37,0,30.69,8.47a54.83,54.83,0,0,1,21.39,23.42q7.68,14.94,7.67,34.31V465.73q0,52.88-23,92.44-22.61,39.17-67.42,60.56-44.4,21-105.76,21-93.26,0-144.53-46.83T850.92,465.73Z"/><path id="path860" class="cls-2" d="M1339.8,568.27V294.16h-26.65q-23.4,0-37.54-14.13-14.53-14.53-14.53-38.35,0-22.22,14.93-37.14t37.14-14.94h26.65v-71q0-29.47,16.15-47.64,16.54-18.57,43.19-18.57,17.35,0,30.68,8.48a54.79,54.79,0,0,1,21.4,23.42q7.66,14.92,7.67,34.31V189.6h33.91q24.63,0,40.77,12.92,16.15,12.51,16.15,39.16t-16.15,39.56q-15.73,12.92-40.77,12.92h-33.91V568.27q0,19.38-7.67,34.72a58.1,58.1,0,0,1-21.4,23.41,59.38,59.38,0,0,1-30.68,8.07q-26.64,0-43.19-18.16-16.15-18.57-16.15-48Z"/></g><g id="a"><path id="path863" class="cls-2" d="M486.45,175.5h20.19q77.19,0,148.43,60.57,74.82,75.1,74.82,169.81,0,108.36-90.25,184.06-65.31,48.69-142.5,48.69-104.2,0-179.32-86.69-51.06-64.71-51.06-144.87,0-121.72,108.06-197.13Q435.69,175.5,486.45,175.5ZM378.39,404.69v2.38q0,73,73.62,110.43,16.92,7.13,45.13,9.5,66.5,0,105.68-62.93,14.25-26.43,14.25-52.25V401.13q0-56.7-55.81-96.19-28.5-17.81-60.56-17.81h-7.13q-63.52,0-103.31,66.5Q378.4,382.13,378.39,404.69Z"/></g><path id="Abgerundetes_Rechteck_2" data-name="Abgerundetes Rechteck 2" class="cls-2" d="M678,354.63a51.88,51.88,0,0,1,52,52v181a52,52,0,0,1-104,0v-181A51.88,51.88,0,0,1,678,354.63Z"/><path id="Ellipse_5" data-name="Ellipse 5" class="cls-3" d="M629,407.63a130,130,0,1,1-130-130A130,130,0,0,1,629,407.63Z"/><g id="o"><path id="path868" class="cls-2" d="M1762.45,176.5h20.19q77.19,0,148.43,60.57,74.82,75.1,74.82,169.81,0,108.36-90.25,184.06-65.31,48.69-142.5,48.69-104.21,0-179.32-86.69-51.06-64.71-51.06-144.87,0-121.72,108.06-197.13Q1711.69,176.5,1762.45,176.5ZM1654.39,405.69v2.38q0,73,73.62,110.43,16.92,7.13,45.13,9.5,66.49,0,105.68-62.93,14.25-26.43,14.25-52.25V402.13q0-56.7-55.81-96.19-28.5-17.81-60.56-17.81h-7.13q-63.52,0-103.31,66.5Q1654.4,383.13,1654.39,405.69Z"/></g><path id="Ellipse_6" data-name="Ellipse 6" class="cls-3" d="M1905,408.63a130,130,0,1,1-130-130A130,130,0,0,1,1905,408.63Z"/><g id="a-2"><path id="path872" class="cls-1" d="M3116.45,175.5h20.19q77.19,0,148.43,60.57,74.82,75.1,74.82,169.81,0,108.36-90.25,184.06-65.31,48.69-142.5,48.69-104.2,0-179.32-86.69-51.06-64.71-51.06-144.87,0-121.72,108.06-197.13Q3065.69,175.5,3116.45,175.5ZM3008.39,404.69v2.38q0,73,73.62,110.43,16.92,7.13,45.13,9.5,66.49,0,105.68-62.93,14.25-26.43,14.25-52.25V401.13q0-56.7-55.81-96.19-28.5-17.81-60.56-17.81h-7.13q-63.53,0-103.31,66.5Q3008.39,382.13,3008.39,404.69Z"/></g><path id="Abgerundetes_Rechteck_2-2" data-name="Abgerundetes Rechteck 2-2" class="cls-1" d="M3308,354.63a51.88,51.88,0,0,1,52,52v181a52,52,0,1,1-104,0v-181A51.88,51.88,0,0,1,3308,354.63Z"/><path id="Ellipse_7" data-name="Ellipse 7" class="cls-3" d="M3259,407.63a130,130,0,1,1-130-130A130,130,0,0,1,3259,407.63Z"/></g></g></g></svg>