<svg width="173" height="32" viewBox="0 0 173 32" fill="none" xmlns="http://www.w3.org/2000/svg">
<path d="M8.33038 8.33594C12.5422 8.33594 15.2565 10.5119 15.8182 14.2329H11.6064C11.1855 12.712 10.0621 11.8928 8.33038 11.8928C5.80275 11.8928 4.39938 13.8587 4.39938 16.6663C4.39938 19.4739 5.89694 21.4399 8.42457 21.4399C10.2497 21.4399 11.1855 20.6207 11.6072 19.0998H15.8191C15.2574 22.8199 12.5431 24.9967 8.33125 24.9967C2.83095 24.9958 0 21.3457 0 16.6655C0 11.9852 3.1118 8.33594 8.33038 8.33594Z" fill="#0073F0"/>
<path d="M70.7773 8.61719H83.4129V12.0798H75.0825V14.8874H81.9153V18.0701H75.0825V21.2528H83.6938V24.7154H70.7773V8.61719Z" fill="#0073F0"/>
<path d="M101.747 8.61719H116.535V12.1732H111.294V24.7154H106.988V12.1732H101.747V8.61719Z" fill="#0073F0"/>
<path d="M133.371 8.33594C137.582 8.33594 140.297 10.5119 140.858 14.2329H136.647C136.225 12.712 135.101 11.8928 133.371 11.8928C130.843 11.8928 129.44 13.8587 129.44 16.6663C129.44 19.4739 130.937 21.4399 133.465 21.4399C135.29 21.4399 136.226 20.6207 136.647 19.0998H140.859C140.298 22.8199 137.583 24.9967 133.371 24.9967C127.872 24.9967 125.041 21.3465 125.041 16.6663C125.041 11.9861 128.153 8.33594 133.371 8.33594" fill="#0073F0"/>
<path d="M122.76 8.625H118.424V24.7111H122.76V8.625Z" fill="#0073F0"/>
<path d="M160.862 8.60938H165.168V21.1507H172.656V24.7076H160.862V8.60938Z" fill="#0073F0"/>
<path d="M71.5083 1L64.0006 24.7044H55.1517L50.0498 8.63647H54.7447L59.5762 23.7012L66.8099 1H71.5083Z" fill="#0073F0"/>
<path d="M49.416 13.9058C49.416 10.6289 47.1727 8.61719 43.0516 8.61719H35.1904V24.7163H39.4956V19.3827H39.8076V19.3732H43.0516L44.7384 24.7033H49.1706L47.1468 18.2956C48.6374 17.3105 49.416 15.7386 49.416 13.9049M39.4947 16.1992V11.8932H42.6791C44.1776 11.8932 45.0175 12.6908 45.0175 13.9533C45.0175 15.3091 44.1776 16.2001 42.6791 16.2001H39.4947V16.1992Z" fill="#0073F0"/>
<path d="M100.559 13.9058C100.559 10.6289 98.3153 8.61719 94.1942 8.61719H86.333V24.7163H90.6382V19.3827H90.9501V19.3732H94.1942L95.881 24.7033H100.313L98.2894 18.2956C99.78 17.3105 100.559 15.7386 100.559 13.9049M90.6373 16.1992V11.8932H93.8217C95.3201 11.8932 96.1601 12.6908 96.1601 13.9533C96.1601 15.3091 95.3201 16.2001 93.8217 16.2001H90.6373V16.1992Z" fill="#0073F0"/>
<path d="M28.5085 8.625H21.3344L16.2402 24.7102H20.6292L21.5919 21.6849H28.2467L29.2145 24.7102H33.6053L28.5094 8.625H28.5085ZM22.6168 18.4097L24.9223 11.1414L27.2521 18.4097H22.6168Z" fill="#0073F0"/>
<path d="M153.75 8.625H146.576L141.481 24.7102H145.87L146.833 21.6849H153.488L154.456 24.7102H158.846L153.751 8.625H153.75ZM147.858 18.4097L150.164 11.1414L152.493 18.4097H147.858Z" fill="#0073F0"/>
<path d="M71.5083 1L64.0006 24.7044H55.1517L50.0498 8.63647H54.7447L59.5762 23.7012L66.8099 1H71.5083Z" fill="#0073F0"/>
</svg>
