<svg width="800px" height="800px" viewBox="0 0 192.756 192.756" xmlns="http://www.w3.org/2000/svg">
<g fill-rule="evenodd" clip-rule="evenodd">
<path d="M151.009 129.008v22.936h-8.442v-22.936h8.442zm-27.126 5.039c4.577 0 8.329 2.802 8.329 6.24 0 3.452-3.752 6.254-8.329 6.254s-8.328-2.802-8.328-6.254c0-3.438 3.751-6.24 8.328-6.24zm2.226-5.039l-6.916-7.804h10.317l9.504 12.843c.926 1.313 1.626 3.552 1.726 5.803.339 6.94-7.59 12.656-16.857 12.656s-16.857-5.69-16.857-12.656c-.001-6.978 6.802-12.431 19.083-10.842zm-39.667 12.844c0 3.113 2.888 4.689 5.264 4.689 2.376 0 5.541-1.751 5.541-4.689v-12.844h7.99v12.844c0 8.903-7.878 10.691-13.531 10.691-5.64 0-13.681-1.788-13.681-10.691v-12.844h8.417v12.844zm-25.338-20.648L80.5 151.943h-9.68l-3.414-5.402H48.649l-3.54 5.402H35.23l18.058-27.788-2.737-2.951h10.553zm2.852 19.809H52.213l5.953-9.142 5.79 9.142z" fill="#000000"/>
<path d="M60.091 94.029c-4.552-4.553-7.14-10.38-7.14-17.284 0-6.578 2.463-12.431 6.627-16.932 4.09 4.464 6.616 10.417 6.616 16.932 0 4.527-.875 8.342-3.002 12.005 3.165-10.054 2.251-17.133-1.625-22.748.7.988 2.601 6.528 2.251 10.742 0 4.665-1.426 9.005-3.853 12.606l.126 4.679zM181.56 76.746c0 16.446-13.419 29.838-29.852 29.838-6.878 0-13.231-2.339-18.421-6.314-5.201 3.927-11.593 6.314-18.533 6.314-6.854 0-13.182-2.339-18.396-6.202-5.215 3.902-11.504 6.202-18.308 6.202-6.878 0-13.23-2.339-18.421-6.314-5.19 3.927-11.593 6.314-18.521 6.314-16.446 0-29.864-13.393-29.864-29.838s13.418-29.864 29.864-29.864c6.928 0 13.331 2.39 18.457 6.391 5.141-4.001 11.556-6.391 18.485-6.391 6.928 0 13.244 2.376 18.383 6.278a29.762 29.762 0 0 1 18.321-6.278c6.94 0 13.332 2.39 18.459 6.391 5.151-4.001 11.567-6.391 18.495-6.391 17.058 0 29.852 13.382 29.852 29.864zm-29.852-26.737c-5.053 0-9.704 1.438-13.719 3.952 6.565-5.241 17.107-6.378 29.214-2.151-4.364-2.651-9.992-4.364-15.495-4.364-6.991 0-13.469 2.538-18.521 6.665l.075 3.364c-4.815-4.614-11.343-7.465-18.509-7.465a25.55 25.55 0 0 0-13.694 3.952c6.542-5.241 17.097-6.378 29.189-2.151-4.365-2.651-9.98-4.364-15.495-4.364-6.967 0-13.268 2.351-18.321 6.49v3.539c-4.801-4.614-11.217-7.465-18.383-7.465a25.586 25.586 0 0 0-13.706 3.952c6.552-5.241 17.095-6.378 29.2-2.151-4.365-2.651-9.979-4.364-15.494-4.364-6.979 0-13.456 2.538-18.521 6.665l.076 3.364c-4.802-4.614-11.331-7.465-18.496-7.465a25.656 25.656 0 0 0-13.718 3.952c6.565-5.241 17.107-6.378 29.212-2.151-4.364-2.651-9.992-4.364-15.494-4.364-16.133 0-29.301 13.181-29.301 29.3 0 5.603 1.95 11.73 5.264 16.67-6.69-13.193-3.314-23.223.952-29.463-1.639 3.664-3.777 8.566-3.664 12.793.413 14.545 12.03 26.738 26.75 26.738 7.465 0 13.768-2.651 18.721-7.654 4.902 5.115 10.643 7.654 18.221 7.654a25.92 25.92 0 0 0 18.482-7.741c4.767 4.777 10.981 7.741 18.222 7.741 7.479 0 13.77-2.651 18.721-7.654 4.915 5.115 10.643 7.654 18.233 7.654 14.72 0 26.725-12.018 26.725-26.738-.001-14.622-12.106-26.74-26.726-26.74zM92.906 93.917A22.637 22.637 0 0 1 78.05 99.47c-5.365-.089-7.767-1.026-10.055-2.151 6.553 5.102 21.11 3.126 24.823-.076-4.051 2.914-9.142 4.591-14.769 4.591-6.904 0-12.719-2.526-17.295-7.041 4.702-4.79 7.078-10.805 7.078-18.046 0-7.041-2.763-13.48-7.253-18.27 3.439-3.452 10.242-6.828 17.471-6.828 6.578 0 12.768 2.989 17.271 7.165h-3.315c-4.239 5.077-6.529 10.843-6.529 17.933 0 5.603 1.951 11.73 5.253 16.67-6.69-13.193-3.302-23.223.951-29.463-1.639 3.664-3.752 8.579-3.652 12.793.151 6.541 3.114 12.606 7.128 17.308l-2.251-.138zm3.514-.425c-4.227-4.502-6.74-10.168-6.74-16.746 0-6.578 2.563-12.593 6.752-17.083 4.265 4.477 6.704 10.417 6.704 17.083 0 4.527-.876 8.342-3.002 12.005 3.164-10.054 2.25-17.133-1.626-22.748.701.988 2.602 6.528 2.264 10.742 0 4.803-1.513 9.292-4.077 12.969l-.275 3.778zm1.301 1.324c4.428-4.727 7.065-11.042 7.065-18.071 0-7.041-2.575-13.118-7.065-17.933 4.502-4.426 10.255-7.165 17.033-7.165 6.541 0 12.668 2.463 17.133 6.603l-2.876.013a29.103 29.103 0 0 0-6.604 18.483c0 5.603 1.951 11.73 5.265 16.67-6.69-13.193-3.313-23.223.951-29.463-1.639 3.664-3.766 8.554-3.665 12.793.15 7.003 2.502 12.769 7.028 17.608l-2.588-.274c-3.952 3.34-9.079 5.391-14.645 5.391-5.365-.089-7.554-1.151-10.042-2.151 6.54 5.102 21.097 3.126 24.811-.076-4.052 2.914-9.142 4.591-14.769 4.591-7.215-.002-12.392-2.866-17.032-7.019zm4.302-.224c3.576 2.576 8.028 4.077 12.73 4.077 4.715 0 9.329-1.589 12.943-4.127-3.564-4.94-5.853-11.255-5.853-17.796 0-6.565 2.139-12.655 5.777-17.658a21.351 21.351 0 0 0-12.868-4.276c-4.702 0-9.055 1.438-12.631 4.001 3.438 4.853 5.765 11.468 5.765 17.933.002 6.541-2.299 12.906-5.863 17.846zm-5.514-6.04a21.72 21.72 0 0 0 3.464-11.806c0-4.427-1.227-8.566-3.54-11.905-2.226 3.514-3.601 7.566-3.601 11.905 0 4.252 1.55 8.416 3.677 11.806zm-5.754 5.952c-3.651-5.077-5.853-11.18-5.853-17.758a29.677 29.677 0 0 1 5.94-17.82c-3.577-2.489-8.141-4.114-12.78-4.114-5.566-.313-11.643 2.876-12.531 4.376 3.302 4.765 5.427 11.242 5.427 17.558 0 6.528-2.125 12.582-5.778 17.595 3.565 2.752 8.042 4.328 12.869 4.328 4.715 0 9.118-1.501 12.706-4.165zm-32.427-.15l-2.589-.274c-3.952 3.34-9.066 5.391-14.631 5.391-5.365-.089-6.955-1.364-10.068-2.151 6.555 5.102 21.11 3.126 24.837-.076-4.064 2.914-9.154 4.591-14.769 4.591-13.806 0-25.099-11.268-25.099-25.087 0-13.819 11.28-25.098 25.099-25.098 6.54 0 12.668 2.463 17.133 6.603l-2.889.013c-4.114 5.039-6.603 11.492-6.603 18.483 0 5.603 1.963 11.73 5.265 16.67-6.69-13.193-3.301-23.223.951-29.463-1.638 3.664-3.752 8.554-3.651 12.793.148 7 2.487 12.765 7.014 17.605zm1.338-5.99a21.695 21.695 0 0 0 3.363-11.619c0-4.276-1.237-8.29-3.401-11.718-2.138 3.352-3.513 7.442-3.513 11.718 0 4.19 1.487 8.317 3.551 11.619zm-5.615 6.178c-3.564-4.94-5.866-11.255-5.866-17.796 0-6.565 2.14-12.655 5.778-17.658a21.31 21.31 0 0 0-12.855-4.276c-12.081 0-21.935 9.854-21.935 21.934 0 12.082 9.854 21.923 21.935 21.923 4.703 0 9.33-1.589 12.943-4.127zm79.699-.513c-4.552-4.553-7.141-10.38-7.141-17.284 0-6.578 2.464-12.431 6.615-16.932 4.102 4.464 6.615 10.417 6.615 16.932 0 4.527-.874 8.342-3.001 12.005 3.177-10.054 2.251-17.133-1.613-22.748.688.988 2.602 6.528 2.251 10.742 0 4.665-1.425 9.005-3.852 12.606l.126 4.679zm.662.763c4.69-4.79 7.079-10.805 7.079-18.046 0-7.041-2.765-13.48-7.267-18.27 3.452-3.452 10.243-6.828 17.483-6.828 13.807 0 25.073 11.279 25.073 25.098 0 4.527-.862 8.342-2.988 12.005 3.164-10.054 2.238-17.133-1.625-22.748.688.988 2.601 6.528 2.25 10.742 0 12.518-10.204 22.724-22.71 22.724-5.365-.089-7.766-1.026-10.067-2.151 6.554 5.102 21.109 3.126 24.824-.076-4.052 2.914-9.142 4.591-14.757 4.591-6.902 0-12.718-2.526-17.295-7.041zm4.415-.451c3.576 2.752 8.053 4.328 12.881 4.328 12.067 0 21.923-9.842 21.923-21.923 0-12.08-9.855-21.934-21.923-21.934-5.565-.313-11.643 2.876-12.53 4.376 3.301 4.765 5.428 11.242 5.428 17.558-.001 6.527-2.127 12.581-5.779 17.595zm-5.502-5.977c2.125-3.389 3.363-7.366 3.363-11.619 0-4.276-1.25-8.29-3.401-11.718-2.151 3.352-3.515 7.442-3.515 11.718 0 4.19 1.477 8.317 3.553 11.619z" fill="#000000"/>
</g>
</svg>
